<svg width="328" height="328" viewBox="0 0 328 328" fill="none" xmlns="http://www.w3.org/2000/svg">
<path fill-rule="evenodd" clip-rule="evenodd" d="M261.006 145.386C208.143 113.994 120.95 111.11 70.479 126.43C62.3747 128.89 53.8057 124.312 51.3593 116.208C48.8993 108.103 53.464 99.5343 61.582 97.0743C119.515 79.4853 215.81 82.8883 276.668 119.009C283.952 123.342 286.344 132.744 282.025 140.029C277.707 147.313 268.29 149.718 261.006 145.386ZM259.284 191.894C255.567 197.907 247.708 199.793 241.695 196.103C197.62 169.016 130.421 161.157 78.269 176.983C71.5177 179.033 64.37 175.22 62.32 168.469C60.2837 161.704 64.0967 154.584 70.848 152.52C130.407 134.453 204.453 143.199 255.075 174.318C261.088 178.008 262.974 185.894 259.284 191.894ZM239.208 236.543C236.269 241.381 229.969 242.898 225.158 239.946C186.646 216.412 138.17 211.095 81.0843 224.133C75.5903 225.391 70.11 221.947 68.8527 216.453C67.5953 210.945 71.0257 205.465 76.5333 204.207C139.004 189.926 192.591 196.076 235.818 222.493C240.643 225.432 242.16 231.732 239.208 236.543ZM164 0C73.431 0 0 73.431 0 164C0 254.583 73.431 328 164 328C254.583 328 328 254.583 328 164C328 73.431 254.583 0 164 0Z" fill="white"/>
</svg>
